<mxfile host="app.diagrams.net" agent="Mozilla/5.0 (X11; Linux x86_64) AppleWebKit/537.36 (KHTML, like Gecko) Chrome/138.0.0.0 Safari/537.36 OPR/122.0.0.0" version="28.2.0">
  <diagram name="Sida-1" id="Ea70QyTiNRh1sYkGIrcL">
    <mxGraphModel dx="1164" dy="1154" grid="1" gridSize="10" guides="1" tooltips="1" connect="1" arrows="1" fold="1" page="1" pageScale="1" pageWidth="827" pageHeight="1169" math="0" shadow="0">
      <root>
        <mxCell id="0" />
        <mxCell id="1" parent="0" />
        <mxCell id="GRsuXEw3B7pzMOwIzFeG-16" value="" style="rounded=0;whiteSpace=wrap;html=1;fillColor=#ffe6cc;strokeColor=#d79b00;" vertex="1" parent="1">
          <mxGeometry x="170" y="710" width="940" height="640" as="geometry" />
        </mxCell>
        <mxCell id="GRsuXEw3B7pzMOwIzFeG-34" value="" style="group" vertex="1" connectable="0" parent="1">
          <mxGeometry x="490" y="860" width="452" height="440" as="geometry" />
        </mxCell>
        <mxCell id="GRsuXEw3B7pzMOwIzFeG-30" value="" style="rounded=1;whiteSpace=wrap;html=1;" vertex="1" parent="GRsuXEw3B7pzMOwIzFeG-34">
          <mxGeometry width="452" height="440" as="geometry" />
        </mxCell>
        <mxCell id="GRsuXEw3B7pzMOwIzFeG-31" value="OpenShift" style="image;aspect=fixed;html=1;points=[];align=center;fontSize=12;image=img/lib/azure2/containers/Azure_Red_Hat_OpenShift.svg;" vertex="1" parent="GRsuXEw3B7pzMOwIzFeG-34">
          <mxGeometry x="20" y="26" width="34" height="34" as="geometry" />
        </mxCell>
        <mxCell id="GRsuXEw3B7pzMOwIzFeG-32" value="Frotend" style="rounded=1;whiteSpace=wrap;html=1;strokeColor=light-dark(#4EBA8E,#EDEDED);strokeWidth=2;" vertex="1" parent="GRsuXEw3B7pzMOwIzFeG-34">
          <mxGeometry x="220" y="10" width="110" height="40" as="geometry" />
        </mxCell>
        <mxCell id="GRsuXEw3B7pzMOwIzFeG-49" value="Redis cache" style="rounded=1;whiteSpace=wrap;html=1;strokeColor=light-dark(#4EBA8E,#EDEDED);strokeWidth=2;" vertex="1" parent="GRsuXEw3B7pzMOwIzFeG-34">
          <mxGeometry x="280" y="110" width="110" height="40" as="geometry" />
        </mxCell>
        <mxCell id="GRsuXEw3B7pzMOwIzFeG-17" value="Nationell katalogtjänst HSA" style="rounded=1;whiteSpace=wrap;html=1;strokeColor=light-dark(#4EBA8E,#EDEDED);strokeWidth=2;" vertex="1" parent="1">
          <mxGeometry x="195" y="810" width="150" height="30" as="geometry" />
        </mxCell>
        <mxCell id="GRsuXEw3B7pzMOwIzFeG-23" style="rounded=0;orthogonalLoop=1;jettySize=auto;html=1;entryX=0.75;entryY=0;entryDx=0;entryDy=0;exitX=0.84;exitY=0.867;exitDx=0;exitDy=0;exitPerimeter=0;fillColor=#60a917;strokeColor=#2D7600;" edge="1" parent="1" source="GRsuXEw3B7pzMOwIzFeG-18" target="GRsuXEw3B7pzMOwIzFeG-20">
          <mxGeometry relative="1" as="geometry" />
        </mxCell>
        <mxCell id="GRsuXEw3B7pzMOwIzFeG-18" value="IdP" style="rounded=1;whiteSpace=wrap;html=1;strokeColor=light-dark(#4EBA8E,#EDEDED);strokeWidth=2;" vertex="1" parent="1">
          <mxGeometry x="193" y="865" width="150" height="30" as="geometry" />
        </mxCell>
        <mxCell id="GRsuXEw3B7pzMOwIzFeG-33" style="edgeStyle=orthogonalEdgeStyle;rounded=0;orthogonalLoop=1;jettySize=auto;html=1;entryX=0.5;entryY=1;entryDx=0;entryDy=0;startArrow=classic;startFill=1;fillColor=#60a917;strokeColor=#2D7600;" edge="1" parent="1" source="GRsuXEw3B7pzMOwIzFeG-19" target="GRsuXEw3B7pzMOwIzFeG-21">
          <mxGeometry relative="1" as="geometry" />
        </mxCell>
        <mxCell id="GRsuXEw3B7pzMOwIzFeG-44" value="Data" style="edgeStyle=orthogonalEdgeStyle;rounded=0;orthogonalLoop=1;jettySize=auto;html=1;entryX=0;entryY=0.75;entryDx=0;entryDy=0;curved=1;exitX=0.25;exitY=1;exitDx=0;exitDy=0;fillColor=#60a917;strokeColor=#2D7600;startArrow=classic;startFill=1;" edge="1" parent="1" source="GRsuXEw3B7pzMOwIzFeG-19" target="GRsuXEw3B7pzMOwIzFeG-42">
          <mxGeometry x="0.222" y="56" relative="1" as="geometry">
            <Array as="points">
              <mxPoint x="590" y="1306" />
            </Array>
            <mxPoint as="offset" />
          </mxGeometry>
        </mxCell>
        <mxCell id="GRsuXEw3B7pzMOwIzFeG-50" style="edgeStyle=orthogonalEdgeStyle;rounded=0;orthogonalLoop=1;jettySize=auto;html=1;fillColor=#60a917;strokeColor=#2D7600;startArrow=classic;startFill=1;" edge="1" parent="1" source="GRsuXEw3B7pzMOwIzFeG-19" target="GRsuXEw3B7pzMOwIzFeG-49">
          <mxGeometry relative="1" as="geometry" />
        </mxCell>
        <mxCell id="GRsuXEw3B7pzMOwIzFeG-19" value="Backend API" style="rounded=1;whiteSpace=wrap;html=1;strokeColor=light-dark(#4EBA8E,#EDEDED);strokeWidth=2;" vertex="1" parent="1">
          <mxGeometry x="560" y="960" width="120" height="60" as="geometry" />
        </mxCell>
        <mxCell id="GRsuXEw3B7pzMOwIzFeG-20" value="Autentiserings-&lt;div&gt;tjänst&lt;/div&gt;" style="rounded=1;whiteSpace=wrap;html=1;strokeColor=light-dark(#4EBA8E,#EDEDED);strokeWidth=2;" vertex="1" parent="1">
          <mxGeometry x="245" y="920" width="100" height="60" as="geometry" />
        </mxCell>
        <mxCell id="GRsuXEw3B7pzMOwIzFeG-43" value="" style="edgeStyle=orthogonalEdgeStyle;rounded=0;orthogonalLoop=1;jettySize=auto;html=1;entryX=0;entryY=0;entryDx=0;entryDy=0;curved=1;fillColor=#60a917;strokeColor=#2D7600;startArrow=classic;startFill=1;exitX=1;exitY=1;exitDx=0;exitDy=0;" edge="1" parent="1" source="GRsuXEw3B7pzMOwIzFeG-21" target="GRsuXEw3B7pzMOwIzFeG-42">
          <mxGeometry x="-0.0003" relative="1" as="geometry">
            <Array as="points">
              <mxPoint x="680" y="950" />
              <mxPoint x="720" y="950" />
              <mxPoint x="720" y="1277" />
            </Array>
            <mxPoint as="offset" />
          </mxGeometry>
        </mxCell>
        <mxCell id="GRsuXEw3B7pzMOwIzFeG-54" value="User Info" style="edgeStyle=orthogonalEdgeStyle;rounded=0;orthogonalLoop=1;jettySize=auto;html=1;entryX=1;entryY=1;entryDx=0;entryDy=0;curved=1;startArrow=classic;startFill=1;fillColor=#60a917;strokeColor=#2D7600;" edge="1" parent="1" source="GRsuXEw3B7pzMOwIzFeG-21" target="GRsuXEw3B7pzMOwIzFeG-18">
          <mxGeometry relative="1" as="geometry">
            <Array as="points">
              <mxPoint x="452" y="880" />
              <mxPoint x="452" y="890" />
              <mxPoint x="370" y="890" />
              <mxPoint x="370" y="895" />
            </Array>
          </mxGeometry>
        </mxCell>
        <mxCell id="GRsuXEw3B7pzMOwIzFeG-21" value="Duende BFF&lt;div&gt;YARP&lt;/div&gt;" style="rounded=1;whiteSpace=wrap;html=1;strokeColor=light-dark(#4EBA8E,#EDEDED);strokeWidth=2;" vertex="1" parent="1">
          <mxGeometry x="560" y="870" width="120" height="50" as="geometry" />
        </mxCell>
        <mxCell id="GRsuXEw3B7pzMOwIzFeG-22" style="rounded=0;orthogonalLoop=1;jettySize=auto;html=1;entryX=0.813;entryY=0;entryDx=0;entryDy=0;entryPerimeter=0;exitX=0.8;exitY=1;exitDx=0;exitDy=0;startArrow=classic;startFill=1;fillColor=#60a917;strokeColor=#2D7600;exitPerimeter=0;" edge="1" parent="1" source="GRsuXEw3B7pzMOwIzFeG-17" target="GRsuXEw3B7pzMOwIzFeG-18">
          <mxGeometry relative="1" as="geometry" />
        </mxCell>
        <mxCell id="GRsuXEw3B7pzMOwIzFeG-24" value="SITHS CA" style="rounded=1;whiteSpace=wrap;html=1;strokeColor=light-dark(#4EBA8E,#EDEDED);strokeWidth=2;" vertex="1" parent="1">
          <mxGeometry x="193" y="990" width="150" height="30" as="geometry" />
        </mxCell>
        <mxCell id="GRsuXEw3B7pzMOwIzFeG-25" style="rounded=0;orthogonalLoop=1;jettySize=auto;html=1;entryX=0.073;entryY=0;entryDx=0;entryDy=0;entryPerimeter=0;exitX=0.08;exitY=1;exitDx=0;exitDy=0;exitPerimeter=0;fillColor=#60a917;strokeColor=#2D7600;startArrow=classic;startFill=1;" edge="1" parent="1" source="GRsuXEw3B7pzMOwIzFeG-18" target="GRsuXEw3B7pzMOwIzFeG-24">
          <mxGeometry relative="1" as="geometry" />
        </mxCell>
        <mxCell id="GRsuXEw3B7pzMOwIzFeG-28" value="" style="group" vertex="1" connectable="0" parent="1">
          <mxGeometry x="380" y="710" width="54" height="52.6099999999999" as="geometry" />
        </mxCell>
        <mxCell id="GRsuXEw3B7pzMOwIzFeG-26" value="" style="verticalLabelPosition=bottom;verticalAlign=top;html=1;shadow=0;dashed=0;strokeWidth=1;shape=mxgraph.android.phone2;strokeColor=#000000;fillColor=#000000;" vertex="1" parent="GRsuXEw3B7pzMOwIzFeG-28">
          <mxGeometry width="20" height="40" as="geometry" />
        </mxCell>
        <mxCell id="GRsuXEw3B7pzMOwIzFeG-27" value="Mobil klient" style="image;sketch=0;aspect=fixed;html=1;points=[];align=center;fontSize=12;image=img/lib/mscae/User_Health_Icon.svg;" vertex="1" parent="GRsuXEw3B7pzMOwIzFeG-28">
          <mxGeometry x="20" y="15.649999999999977" width="34" height="36.96" as="geometry" />
        </mxCell>
        <mxCell id="GRsuXEw3B7pzMOwIzFeG-29" value="OOB" style="rounded=0;orthogonalLoop=1;jettySize=auto;html=1;entryX=1;entryY=0.5;entryDx=0;entryDy=0;fillColor=#60a917;strokeColor=#2D7600;startArrow=classic;startFill=1;" edge="1" parent="1" target="GRsuXEw3B7pzMOwIzFeG-20">
          <mxGeometry x="-0.5253" y="-2" relative="1" as="geometry">
            <mxPoint x="380" y="780" as="sourcePoint" />
            <mxPoint as="offset" />
          </mxGeometry>
        </mxCell>
        <mxCell id="GRsuXEw3B7pzMOwIzFeG-37" value="" style="group" vertex="1" connectable="0" parent="1">
          <mxGeometry x="470" y="730" width="76" height="56" as="geometry" />
        </mxCell>
        <mxCell id="GRsuXEw3B7pzMOwIzFeG-35" value="" style="sketch=0;pointerEvents=1;shadow=0;dashed=0;html=1;strokeColor=none;fillColor=#505050;labelPosition=center;verticalLabelPosition=bottom;verticalAlign=top;outlineConnect=0;align=center;shape=mxgraph.office.devices.laptop;" vertex="1" parent="GRsuXEw3B7pzMOwIzFeG-37">
          <mxGeometry x="18" y="22" width="58" height="34" as="geometry" />
        </mxCell>
        <mxCell id="GRsuXEw3B7pzMOwIzFeG-36" value="" style="image;sketch=0;aspect=fixed;html=1;points=[];align=center;fontSize=12;image=img/lib/mscae/User_Health_Icon.svg;" vertex="1" parent="GRsuXEw3B7pzMOwIzFeG-37">
          <mxGeometry width="27.6" height="30" as="geometry" />
        </mxCell>
        <mxCell id="GRsuXEw3B7pzMOwIzFeG-38" value="Webbläsare" style="text;html=1;align=center;verticalAlign=middle;whiteSpace=wrap;rounded=0;" vertex="1" parent="1">
          <mxGeometry x="525" y="730" width="60" height="30" as="geometry" />
        </mxCell>
        <mxCell id="GRsuXEw3B7pzMOwIzFeG-39" value="FETCH&lt;div&gt;krypterad&amp;nbsp;&lt;/div&gt;&lt;div&gt;session cookie&lt;/div&gt;" style="edgeStyle=orthogonalEdgeStyle;rounded=0;orthogonalLoop=1;jettySize=auto;html=1;entryX=0.317;entryY=-0.02;entryDx=0;entryDy=0;entryPerimeter=0;curved=1;startArrow=classic;startFill=1;fillColor=#60a917;strokeColor=#2D7600;" edge="1" parent="1" source="GRsuXEw3B7pzMOwIzFeG-35" target="GRsuXEw3B7pzMOwIzFeG-21">
          <mxGeometry x="0.3727" y="-18" relative="1" as="geometry">
            <mxPoint as="offset" />
          </mxGeometry>
        </mxCell>
        <mxCell id="GRsuXEw3B7pzMOwIzFeG-41" value="HTML/CSS/JS" style="edgeStyle=orthogonalEdgeStyle;rounded=0;orthogonalLoop=1;jettySize=auto;html=1;entryX=0.5;entryY=0;entryDx=0;entryDy=0;curved=1;fillColor=#60a917;strokeColor=#2D7600;" edge="1" parent="1" source="GRsuXEw3B7pzMOwIzFeG-35" target="GRsuXEw3B7pzMOwIzFeG-32">
          <mxGeometry x="0.134" y="-33" relative="1" as="geometry">
            <mxPoint as="offset" />
          </mxGeometry>
        </mxCell>
        <mxCell id="GRsuXEw3B7pzMOwIzFeG-42" value="SQL Server" style="image;aspect=fixed;perimeter=ellipsePerimeter;html=1;align=center;shadow=0;dashed=0;spacingTop=3;image=img/lib/active_directory/database_server.svg;" vertex="1" parent="1">
          <mxGeometry x="950" y="1270" width="41" height="50" as="geometry" />
        </mxCell>
        <mxCell id="GRsuXEw3B7pzMOwIzFeG-52" style="rounded=0;orthogonalLoop=1;jettySize=auto;html=1;fillColor=#60a917;strokeColor=#2D7600;" edge="1" parent="1" source="GRsuXEw3B7pzMOwIzFeG-51" target="GRsuXEw3B7pzMOwIzFeG-42">
          <mxGeometry relative="1" as="geometry" />
        </mxCell>
        <mxCell id="GRsuXEw3B7pzMOwIzFeG-51" value="Data-laddning" style="shape=image;html=1;verticalAlign=top;verticalLabelPosition=bottom;labelBackgroundColor=#ffffff;imageAspect=0;aspect=fixed;image=https://icons.diagrams.net/icon-cache1/Bootstrap_Vol_3-2297/filetype-exe-866.svg" vertex="1" parent="1">
          <mxGeometry x="960" y="1100" width="40" height="40" as="geometry" />
        </mxCell>
        <mxCell id="GRsuXEw3B7pzMOwIzFeG-53" style="edgeStyle=orthogonalEdgeStyle;rounded=0;orthogonalLoop=1;jettySize=auto;html=1;entryX=1;entryY=0.5;entryDx=0;entryDy=0;curved=1;startArrow=classic;startFill=1;fillColor=#60a917;strokeColor=#2D7600;" edge="1" parent="1" source="GRsuXEw3B7pzMOwIzFeG-35" target="GRsuXEw3B7pzMOwIzFeG-18">
          <mxGeometry relative="1" as="geometry">
            <Array as="points">
              <mxPoint x="461" y="880" />
            </Array>
          </mxGeometry>
        </mxCell>
        <mxCell id="GRsuXEw3B7pzMOwIzFeG-56" style="edgeStyle=orthogonalEdgeStyle;rounded=0;orthogonalLoop=1;jettySize=auto;html=1;fillColor=#60a917;strokeColor=#2D7600;" edge="1" parent="1" source="GRsuXEw3B7pzMOwIzFeG-55" target="GRsuXEw3B7pzMOwIzFeG-51">
          <mxGeometry relative="1" as="geometry" />
        </mxCell>
        <mxCell id="GRsuXEw3B7pzMOwIzFeG-55" value="&lt;font style=&quot;background-color: light-dark(rgb(255, 255, 255), rgb(237, 237, 237)); color: light-dark(rgb(16, 14, 14), rgb(237, 237, 237));&quot;&gt;Ekonomisystem&lt;/font&gt;" style="sketch=0;points=[[0,0,0],[0.25,0,0],[0.5,0,0],[0.75,0,0],[1,0,0],[0,1,0],[0.25,1,0],[0.5,1,0],[0.75,1,0],[1,1,0],[0,0.25,0],[0,0.5,0],[0,0.75,0],[1,0.25,0],[1,0.5,0],[1,0.75,0]];outlineConnect=0;fontColor=#ffffff;fillColor=#60a917;strokeColor=#2D7600;dashed=0;verticalLabelPosition=bottom;verticalAlign=top;align=center;html=1;fontSize=12;fontStyle=0;aspect=fixed;shape=mxgraph.aws4.resourceIcon;resIcon=mxgraph.aws4.business_application;" vertex="1" parent="1">
          <mxGeometry x="1020" y="882" width="78" height="78" as="geometry" />
        </mxCell>
        <mxCell id="GRsuXEw3B7pzMOwIzFeG-11" value="Token/cookie swap" style="text;html=1;align=center;verticalAlign=middle;whiteSpace=wrap;rounded=0;" vertex="1" parent="1">
          <mxGeometry x="660" y="1105" width="120" height="30" as="geometry" />
        </mxCell>
      </root>
    </mxGraphModel>
  </diagram>
</mxfile>
